<?xml version="1.0" encoding="utf-8"?>
<svg version="1.1" xmlns="http://www.w3.org/2000/svg" xmlns:xlink="http://www.w3.org/1999/xlink" x="0px" y="0px"
	 viewBox="0 0 256 211" style="enable-background:new 0 0 256 211;" xml:space="preserve" fill="#282828">
<path d="M193.1,134.4c-12.2,36.7-46.8,63.4-87.6,63.4c-51,0-92.4-41.4-92.4-92.4s41.4-92.4,92.4-92.4c30.7,0,57.1,13.9,73.9,36.9
	c0,0,5.2-12.9,5.8-13.5C165.8,13.4,137.8,0,105.4,0C47.2,0,0,47.2,0,105.4s47.2,105.4,105.4,105.4c47.1,0,86.9-31.1,100.5-73.7
	C201.6,136.8,196.2,135.3,193.1,134.4z"/>
<path d="M134.4,74c3.7-3.9,9.4-5.9,17.4-5.9h18.7V56h-18.9c-12.2,0-21.4,3-27.6,8.9c-6.2,5.9-9.4,14.7-9.4,26.2l-0.3,11.9l-41.1,0
	v13.2h41.1c0,11-3.7,19.4-11.1,26.2c-7.4,6.9-16.6,10.3-27.5,10.3c-11.8,0-21.5-4.1-29.2-12.4c-7.7-8.3-11.6-18.6-11.6-31
	c0-11.8,3.9-21.5,11.8-29.4c7.8-7.8,17.6-11.7,29.4-11.7c11.4,0,19.9,2.6,29.2,11.6l10-9.4c-11.5-11.3-23.5-15.1-39.7-15.1
	c-15.7,0-28.8,5.2-39.4,15.7C25.8,81.8,20.5,94.7,20.5,110c0,15.8,5.3,29,15.9,39.7c10.6,10.7,23.7,16,39.2,16
	c11.4,0,21.7-3.1,30.9-9.4c9.2-6.2,15.3-13.6,18.3-22.1c1.8-4.9,3-11.6,3.6-17.9l42.2,0v-13.7H129v-9.9
	C129,84.2,130.8,77.9,134.4,74z"/>
<path d="M230.6,15.1c-1-0.1-2.4,0-4.1,1.1c-3.2,2.2-3,2.6-6.1,2.2c-3.2-0.4,0.1-3.8,0.1-3.8s1.8-1.4,4.1-1.5c1.2-0.1,2.4,0,3.2,0.2
	c-0.3-0.2-0.7-0.3-1.1-0.4c-0.9-0.2-2.6-0.3-4.4-0.4c-1.3,0.1-3.2,0.4-4,1.3c-1.3,1.4-2.6,3.2-2.6,3.2s-1.6,2.2-3.3,1.8
	s-0.9-1.9-0.9-1.9s1.3-1.7,2.3-2.4c1-0.7,2.5-1.9,4.4-2c-0.4,0-0.7,0-0.9,0c-1.3,0-4.3,1-4.3,1s-2.2,1.6-4.6,5c0,0-0.4,0.6-1.2,0.8
	c-1.2,0.4-3.2,0-1.5-1.9c0.4-0.5,3.1-3.4,5.8-3.8c-1.5-0.1-2.9,0-3.8,0.7c-0.9,0.7-3.6,2.4-4.5,4.4c-1,2.2-2.7,2.1-2.7,2.1
	s-1.9-0.3,0.6-3c1-1.1,3.3-2.2,4.9-2.9c-2.9-0.4-5.9,2.9-5.9,2.9l-3.2,3.9c0,0-0.9,0.9-1.4,0.8c-0.5-0.1-0.4-0.8,0-1.2
	c0.4-0.5,1.3-1.7,2.6-2.5c0.5-0.3,1-0.6,1.4-0.9c-2.5,0.5-4.3,2.7-5.3,4.1c-0.8,1.1-2.9,5.1-2.9,5.1l-0.6,1.3
	c1.3-0.7,4.7-2.8,9.7-3.8l-1.7,3.6c0,0-7.2,2.1-9.6,3.9c0,0-1.3,2.5-1.3,3.1c0,0.6,0,0.6,0,0.6c0,0.1,0.6-1.8,1.6-2.4
	c2.2-1.3,4.7-2.2,5-1.7c0.7,1.1-1,3-2.3,3.3c-1.3,0.3-3.3,0.8-4.3,1.4c-0.4,0.3-2.6,1.8-2.9,3.8c-0.1,0.3-0.1,0.8,0.1,1.3
	c0.1-0.6,0.2-1.7,0.9-2c1-0.5,3.6-1.8,4.8-1.9c1.3-0.1,1.4,0,1.4,0s1,0.6-0.3,2.2c-0.9,1.2-6.4,2.4-6.4,2.4l-0.2,0.1c0,0,0,0,0,0
	s-0.8,0-1.9,1.8c-0.1,0.2-0.5,0.9-0.8,1.8c-0.2,0.5-0.2,1-0.1,1.3c0.2-0.6,0.6-1.6,1.4-2c0.6-0.3,5.8-1.9,11.3-2.6
	c5.9-0.8,12.2-0.7,15.3-0.3c5.1,0.7,9.7,3.2,11.5,4.1c5.3,2.7,10.7,7,11.7,8c1,1,1.4,1.9,1.1,3c-0.2,0.6-0.7,1.1-1.5,0.8
	c-0.9-0.2-2.1-1.2-2.8-1.6c-0.8-0.5-6.2-5.2-13.9-8.2c-2.7-1-7.2-3-14.1-2.9c-7.2,0-16.6,2-16.6,2s-1.4,0.2-3,0.6
	c-0.2,0.1-1.6,0.9-2.2,2.2c-0.1,0.2-0.2,0.5-0.3,0.7c-0.4,0.8-0.4,1.7-0.3,2.4c0.2-0.5,0.6-1.2,1.2-1.4c0.2-0.1,6.4-2,12.8-2.8
	c2.9-0.4,8.4-0.6,13.1,0.1c5.5,0.8,10.5,3.1,12.6,4.3c4.1,2.3,10.4,6.5,11.4,7.6c1,1,1.4,1.9,1.1,3c-0.2,0.6-0.7,1.1-1.5,0.8
	c-0.9-0.2-2.1-1.2-2.8-1.6c-0.8-0.5-6.2-5.2-13.9-8.2c-5.5-2.1-12.9-3.1-17.8-2.6c-11.8,1.1-12.8,1.7-12.8,1.7s-1.9,0.3-3.8,0.8
	c-0.6,0.5-1.5,1.3-1.8,2.2c-0.5,1.5-0.2,2.5,0.1,3c0-0.4-0.1-2,0.9-2.5c0.7-0.3,7.6-1.6,14.4-2c4.9-0.3,9.7,0,12,0.5
	c6,1.2,11.6,3.8,13.5,5c3.8,2.3,9.5,5.9,10.5,6.9c1,1,1.2,1.8,0.8,2.9c-0.2,0.6-1,1-1.8,0.8c-0.9-0.2-1.5-1-2.2-1.4
	c-0.8-0.5-7.3-5-15.1-8c-5.5-2.1-11-2.6-16.7-2.8c-4.7-0.2-12.5,0.5-12.5,0.5s-2,0.2-3.9,0.7c-0.6,0.3-2.4,1.5-3,3.4
	c-0.3,1-0.2,1.7,0,2.2c0.2-0.8,0.2-1.8,1.3-2.4c2.8-1.3,8.1-1.3,8.1-1.3l-1.6,3.7c-1.5-0.2-7.4,0.8-7.4,0.8s-2.2,0.6-2.9,2.8
	c-0.4,1.2-0.3,2,0,2.6c0.3-0.7,1-2.3,2.1-2.6c2-0.6,7.1-0.5,7.1-0.5l-1.1,3.1c0,0-0.1,0.7-1.4,0.8c-0.8,0-4.1,0.3-6.7,0.5
	c-0.7,0.2-1.5,0.5-1.7,0.8c-0.2,0.3-2.4,3.9-2.8,8.6c-0.4,4,0.7,8.7,3.9,12.1c7,7.3,19.3,11.7,19.3,11.7l-5.9,16.1
	c-0.4,9.4,5.7,11,5.7,11s13.8,4.3,19.2,3.5s13.5-23.1,13.5-23.1s5.6,0,11.1-4.7c3.3-2.8,4.6-7.5,4.7-10.1c0.1-1.7-0.7-1.9-0.7-1.9
	c4.1-2.3,2.3-6.1,2.3-6.1c3.9-2.2,2.2-6.2,2.2-6.2c3.8-3,2.1-6.2,2.1-6.2c3.7-2.2,2.1-6,2.1-6c2.4-1.7,2.2-5.9,2.2-5.9
	c2-2.1,1.8-5.8,1.8-5.8c2.3-2.3,1.7-5.8,1.7-5.8c1.8-0.7,2.8-8.2,2.8-8.2C258,38.3,235.8,16.5,230.6,15.1z M170.4,81.4
	c0.8-3,2.7-2.9,2.1,0.2s-1,6,0.9,10.7c1.5,3.8,3.5,5.7,4.5,6.4C168.6,92.4,169.6,84.4,170.4,81.4z M183.7,101
	c-3.7-1.7-5.6-4-6.9-6.2c-2.6-4.3-3.2-7.5-1.7-13.4c0.6-2.6,3.7-3,2.9,0.1c-2.8,11.1,0.2,15.5,7.4,20
	C187.4,102.8,184.8,101.5,183.7,101z M188,101.2c-2.9-1.9-5.2-3-7.1-7.2c-2.4-5.4-0.4-12.1-0.4-12.1s0.9-3.3,2.7-2.1
	c0.9,0.6,0.7,2.3,0.4,3.4c-0.2,1.1-2.4,6.5,1.5,13.1c2.7,4.6,8.6,7.4,8.6,7.4S190.9,103.1,188,101.2z M198.6,103.9
	c-3.9-1.7-8-3.6-10.8-9.2c-2.7-5.3-1.4-9.7-1.1-11.6c0.3-1.9,2.1-3.4,3.8-2.8c1.3,0.5,0.7,3.2,0.7,3.2s-1.9,7.2,1.4,13
	c3.1,5.5,11.6,9.2,11.6,9.2C204.1,105.5,201.1,104.9,198.6,103.9z M204.6,102.2c-3.6-2-7-3.4-9.2-8.5c-1.9-4.3-0.5-8.7-0.5-8.7
	s1.1-5.5,4-3.2c0.8,0.6,0.8,2,0.2,4.3c-0.6,2.4-1.1,8.3,3.8,12.8c4.1,3.9,10.4,5.8,10.4,5.8C213.4,105,207.2,103.6,204.6,102.2z
	 M224.9,84.9c-0.8,1.9-2.8,0.6-2.8,0.6s-11.8-7.3-20.1-9.8c-8.3-2.4-18.5-2.5-18.5-2.5l1.7-3.8c0,0,5.4,0,9.8,0.5
	c1.8,0.2,8.7,1.6,14.2,3.9c7.7,3.2,14.4,7.6,14.7,7.9C224.3,82.4,225.7,83,224.9,84.9z M227.4,77.8c-0.8,1.5-2.5,0.8-2.5,0.8
	s-7.5-5-14.8-8.2c-5.8-2.6-11.5-3.5-13.2-3.6c-3.9-0.2-10.4-0.5-10.4-0.5l1.4-3.6c0,0,6.2-1,12.3,0c2.9,0.5,9.4,2.3,14.4,4.8
	c6.8,3.3,11.9,7.5,11.9,7.5S228.2,76.3,227.4,77.8z M204.7,23.6c0,0,5.1-1.1,8.9-0.9c5,0.2,9.4,1.4,11.6,2.1
	c5.8,1.9,15.7,11.1,15.7,11.1s1.5,0.7,0.6,2.5s-2.4,0-2.4,0s-4.3-3.5-8.8-6.6c-3.8-2.6-7.7-3.7-10-4.8c-4.9-2.3-17.1-0.2-17.1-0.2
	L204.7,23.6z M202.8,31.6c0.8-1.7,2.4-1.8,2.4-1.8s3.1-0.7,6.9-0.6c5,0.2,9.4,1.4,11.6,2.1c5.8,1.9,15.7,11.1,15.7,11.1
	s0.7,1.2,0,2.4c-0.7,1.3-1.9,0.1-1.9,0.1s-4.3-3.5-8.8-6.6c-3.8-2.6-7.2-3.2-9.7-4.3c-3.6-1.6-15.1-0.9-15.1-0.9
	S202.1,32.9,202.8,31.6z M195.6,38.9c-3.4,0.7-1.7-3.4-1.7-3.4s2.1-4.3,5-4.5c2.9-0.2,2.4,2.6,2.4,2.6S200.4,37.8,195.6,38.9z
	 M233.9,51.1c0,0-4.1-3.5-8.6-6.1c-4.9-2.8-10.4-4.8-12.9-5.3c-5.3-1-9.7-0.5-9.7-0.5s-2.9,0.3-2.2-1.5c0.6-1.8,3.1-2,3.1-2
	c0.8-0.2,6.6-0.8,11.5,0.4c5.9,1.4,11,4.6,11.6,5c1.1,0.8,9.2,6.8,9.2,6.8s1.9,1.6,1.6,3.1C237.1,52.6,233.9,51.1,233.9,51.1z
	 M238.9,95.1c-0.3,1.8-1.3,1.6-1.3,1.6s-1.4-1.1-3.3-2.9c-2.2-2.1-2.1-2.5-2.1-3.7c0-0.6,0.6-2.7,2.4-0.9c1.9,1.9,1.9,1.9,3.1,3
	C238.9,93.3,239.1,94.3,238.9,95.1z M241,88.7c-0.3,1.8-0.9,1.6-0.9,1.6s-1.5-1.4-3.3-3.2c-2.2-2.1-2.1-2.5-2.1-3.7
	c0-0.6,0.6-2.7,2.4-0.9c1.9,1.9,1.9,1.9,3.1,3C241.3,86.6,241.1,87.9,241,88.7z M243.1,82.6c-0.7,1.4-1.1,1.1-1.1,1.1
	s-1.2-1.3-3-3.1c-2.2-2.1-2.1-3.1-2.1-3.7c0-0.6,0.8-2.8,2.4-0.9c1.6,1.9,2.1,2.1,2.9,3.3S243.5,81.9,243.1,82.6z M245.4,76.5
	c-0.7,1.4-1.1,1.2-1.1,1.2s-1.5-2.1-3.3-3.8c-2.2-2.1-2.1-3.1-2.1-3.7c0-0.6,0.8-2.8,2.4-0.9c1.6,1.9,2.7,3,3.5,4.3
	C245.7,74.8,245.8,75.8,245.4,76.5z M247,70.9c-0.4,0.6-0.8,0.7-0.8,0.7S244.6,69,243,67c-1.9-2.4-1.9-2-1.5-3.8
	c0.1-0.6,0.4-2,2.1-0.2c1.7,1.9,2.3,2.9,3.1,4.2C247.5,68.6,248,69.6,247,70.9z M249.2,65c-0.4,1.2-0.6,1.1-0.6,1.1
	s-1.6-3.2-3.3-5.1c-1.9-2-2.1-2.2-1.9-4c0.1-0.6,0.8-2.1,2.3,0c1.5,2.1,2.5,3.4,3.2,4.5C249.6,62.8,249.7,63.6,249.2,65z
	 M251.1,59.6c-0.3,0.5-0.5,0.7-0.7,0.6c-0.2-0.4-1.9-3.7-3.4-5.6c-1.9-2.4-1.7-3.4-1.6-4c0.1-0.6,0.8-2,2.1,0.1
	c1.3,2.1,2.6,3.3,3.3,4.6C251.5,56.7,252,58.2,251.1,59.6z M253,53.5c-0.3,0.5-0.3,0.4-0.4,0.6c0,0-2-3.8-3.5-5.7
	c-1.9-2.4-1.7-3.4-1.6-4c0.1-0.6,0.7-1.7,2,0.5c1.3,2.1,2.2,2.9,2.9,4.3C253,50.5,253.8,52.1,253,53.5z"/>
</svg>
